<?xml version="1.0" encoding="utf-8"?>
<!-- Generator: Adobe Illustrator 21.0.0, SVG Export Plug-In . SVG Version: 6.00 Build 0)  -->
<svg version="1.1" id="Layer_1" xmlns="http://www.w3.org/2000/svg" xmlns:xlink="http://www.w3.org/1999/xlink" x="0px" y="0px"
	 viewBox="0 0 24 24" style="enable-background:new 0 0 24 24;" xml:space="preserve">
<style type="text/css">
	.st0{fill:#616161;}
</style>
<g>
	<polygon class="st0" points="10.003,0 6.028,0 0.043,0 0.043,5.985 0.043,9.961 6.028,9.961 6.028,5.985 10.003,5.985 	"/>
	<polygon class="st0" points="23.957,9.961 23.957,5.985 23.957,0 17.972,0 13.997,0 13.997,5.985 17.972,5.985 17.972,9.961 	"/>
	<g>
		<polygon class="st0" points="13.997,24 17.972,24 23.957,24 23.957,18.015 23.957,14.039 17.972,14.039 17.972,18.015 
			13.997,18.015 		"/>
		<polygon class="st0" points="0.043,14.039 0.043,18.015 0.043,24 6.028,24 10.003,24 10.003,18.015 6.028,18.015 6.028,14.039 		
			"/>
	</g>
</g>
</svg>
