<?xml version="1.0" encoding="utf-8"?>
<!-- Generator: Adobe Illustrator 21.0.0, SVG Export Plug-In . SVG Version: 6.00 Build 0)  -->
<svg version="1.1" id="Layer_1" xmlns="http://www.w3.org/2000/svg" xmlns:xlink="http://www.w3.org/1999/xlink" x="0px" y="0px"
	 viewBox="0 0 24 18" style="enable-background:new 0 0 24 18;" xml:space="preserve">
<style type="text/css">
	.st0{fill:url(#SVGID_1_);}
	.st1{fill:url(#SVGID_2_);}
	.st2{fill:url(#SVGID_3_);}
</style>
<g>
	<radialGradient id="SVGID_1_" cx="11.1125" cy="8.8794" r="15.7314" gradientUnits="userSpaceOnUse">
		<stop  offset="0" style="stop-color:#036EC7"/>
		<stop  offset="1" style="stop-color:#024A85"/>
	</radialGradient>
	<rect class="st0" width="24" height="18"/>
	<g>
		<g>
			<radialGradient id="SVGID_2_" cx="13.7671" cy="7.9692" r="12.0309" gradientUnits="userSpaceOnUse">
				<stop  offset="0" style="stop-color:#024A85"/>
				<stop  offset="1" style="stop-color:#052752"/>
			</radialGradient>
			<path class="st1" d="M6.714,10.759h0.047c0.518,0,0.938-0.42,0.938-0.938V7.943c0-0.368-0.213-0.686-0.522-0.84
				c0.133-2.538,2.24-4.563,4.811-4.563c2.571,0,4.678,2.025,4.811,4.563c-0.309,0.154-0.522,0.472-0.522,0.84v1.877
				c0,0.123,0.024,0.239,0.067,0.347c-0.547,0.392-1.344,0.671-2.241,0.748c-0.101-0.154-0.274-0.257-0.473-0.257h-0.747
				c-0.311,0-0.563,0.252-0.563,0.562c0,0.312,0.251,0.563,0.563,0.563h0.747c0.218,0,0.403-0.124,0.497-0.304
				c1.04-0.082,1.947-0.4,2.582-0.869c0.146,0.094,0.319,0.148,0.505,0.148h0.047c0.519,0,0.939-0.42,0.939-0.938V7.944
				c0-0.374-0.22-0.695-0.535-0.846c-0.138-3.014-2.632-5.424-5.679-5.424c-3.046,0-5.541,2.41-5.679,5.424
				c-0.316,0.15-0.535,0.471-0.535,0.846v1.877C5.775,10.339,6.195,10.759,6.714,10.759z"/>
			<radialGradient id="SVGID_3_" cx="13.7671" cy="7.9692" r="12.0309" gradientUnits="userSpaceOnUse">
				<stop  offset="0" style="stop-color:#024A85"/>
				<stop  offset="1" style="stop-color:#052752"/>
			</radialGradient>
			<path class="st2" d="M19.929,18c-0.177-0.845-0.528-2.015-1.213-3.029c0.002-0.003-0.352-0.487-1.19-0.808
				c0,0-1.788-0.542-2.635-1.136c0,0.018-0.002,0.035-0.002,0.053c-0.004,0.233-0.031,0.519-0.066,0.813
				c-0.107,0.879-0.305,1.856-0.305,1.856c-0.263-0.432-0.498-0.717-0.707-0.9c-0.256-0.224-0.469-0.294-0.636-0.294
				c-0.021,0-0.041,0-0.058,0.002c-0.209,0.022-0.334,0.152-0.371,0.193c1.032-1.26,1.465-2.352,1.567-2.635
				c-0.192,0.147-0.427,0.234-0.679,0.234h-0.747c-0.622,0-1.128-0.506-1.128-1.128c0-0.621,0.506-1.127,1.128-1.127h0.747
				c0.25,0,0.489,0.083,0.683,0.23c0.349-0.048,0.68-0.134,0.98-0.246C15.457,9.75,15.54,9.36,15.54,9.36
				c0.251-0.705,0.095-0.978-0.023-1.08c0.181-0.591,0.576-2.254-0.365-3.312c0,0-0.361-0.799-1.811-1.088
				c0,0-0.497-0.206-0.74-0.726c-0.076-0.011-0.152-0.023-0.229-0.03c-0.142,0.062-0.312,0.188-0.312,0.443l-0.242-0.097
				l-0.224,0.158l-0.259-0.158c0,0-0.018-0.005-0.055-0.005c-0.05,0-0.135,0.009-0.26,0.053c0,0-1.887,0.725-2.37,2.224
				c0,0-0.268,0.636,0.059,2.488C8.631,8.261,8.281,8.455,8.604,9.36c0,0,0.141,0.664,0.413,0.989
				c0.154,0.475,0.389,0.936,0.676,1.343c-0.001-0.001-0.003-0.002-0.004-0.004c0,0,0.036,0.178,0.003,0.428
				c0.067,0.183,0.609,1.596,1.56,2.664c-0.05-0.051-0.154-0.136-0.308-0.162c-0.031-0.005-0.063-0.008-0.098-0.008
				c-0.154,0-0.347,0.06-0.575,0.245c-0.222,0.18-0.479,0.477-0.767,0.953c0,0-0.237-1.167-0.333-2.097
				c-0.023-0.224-0.038-0.434-0.04-0.61c0-0.035,0-0.069,0.001-0.101c-0.829,0.604-2.677,1.164-2.677,1.164
				c-0.837,0.323-1.193,0.807-1.193,0.807C4.578,15.985,4.228,17.155,4.051,18H19.929z"/>
		</g>
	</g>
</g>
</svg>
